PathFileType	4	(X/Y/Z)	/Users/itak/Documents/Research/Walk-IL/dataset/trc/00174_00008.trc
DataRate	CameraRate	NumFrames	NumMarkers	Units	OrigDataRate	OrigDataStartFrame	OrigNumFrames
100.000000	100.000000	4	53	mm	100.000000	383	614
Frame#	Time	RPSI			LPSI			L3			STRN			T10			C7			CLAV			RBAK			LBAK			LSHO			LUPA			LAEL			LAOL			LWTS			LWPS			LFRA			LIFD			LHPS			LHTS			RSHO			RUPA			RAEL			RAOL			RWTS			RWPS			RFRA			RIFD			RHTS			RHPS			RBHD			LFHD			RFHD			LBHD			LHIP			RHIP			RASI			LASI			LKNE			LTHI			LANK			LTIP			LTOE			LMT1			LMT5			LHEE			RKNE			RTHI			RANK			RTIP			RTOE			RMT1			RMT5			RHEE			
		X1	Y1	Z1	X2	Y2	Z2	X3	Y3	Z3	X4	Y4	Z4	X5	Y5	Z5	X6	Y6	Z6	X7	Y7	Z7	X8	Y8	Z8	X9	Y9	Z9	X10	Y10	Z10	X11	Y11	Z11	X12	Y12	Z12	X13	Y13	Z13	X14	Y14	Z14	X15	Y15	Z15	X16	Y16	Z16	X17	Y17	Z17	X18	Y18	Z18	X19	Y19	Z19	X20	Y20	Z20	X21	Y21	Z21	X22	Y22	Z22	X23	Y23	Z23	X24	Y24	Z24	X25	Y25	Z25	X26	Y26	Z26	X27	Y27	Z27	X28	Y28	Z28	X29	Y29	Z29	X30	Y30	Z30	X31	Y31	Z31	X32	Y32	Z32	X33	Y33	Z33	X34	Y34	Z34	X35	Y35	Z35	X36	Y36	Z36	X37	Y37	Z37	X38	Y38	Z38	X39	Y39	Z39	X40	Y40	Z40	X41	Y41	Z41	X42	Y42	Z42	X43	Y43	Z43	X44	Y44	Z44	X45	Y45	Z45	X46	Y46	Z46	X47	Y47	Z47	X48	Y48	Z48	X49	Y49	Z49	X50	Y50	Z50	X51	Y51	Z51	X52	Y52	Z52	X53	Y53	Z53	

384	3.83	-748.2796020507812	1066.103271484375	310.0165405273438	-757.4468383789062	1068.173461914062	187.6436614990234	-746.9803466796875	1107.459716796875	249.4128265380859	-464.3625183105469	1288.314086914062	221.8070983886719	-759.4609985351562	1267.552124023438	238.3806457519531	-669.4407348632812	1528.750610351562	220.4086151123047	-481.7984619140625	1404.412109375	212.9842224121094	-746.4360961914062	1361.240600585938	333.2287902832031	-684.1091918945312	1504.850219726562	119.8489456176758	-613.3883666992188	1486.176147460938	37.44301605224609	-663.2979125976562	1359.656860351562	-34.75818252563477	-673.0670166015625	1144.088134765625	-59.14404296875	-711.46484375	1128.235595703125	19.29733467102051	-562.7799682617188	911.0785522460938	-51.12359619140625	-649.1847534179688	890.6337280273438	-78.3126220703125	-664.4576416015625	1033.267578125	-77.87699890136719	-541.8621215820312	727.3414306640625	-35.9669303894043	-626.780517578125	820.93212890625	-79.42366790771484	-554.4833374023438	833.7125244140625	-74.98924255371094	-600.907958984375	1500.799438476562	397.496337890625	-623.7280883789062	1435.34130859375	466.26513671875	-666.1426391601562	1149.698974609375	522.58349609375	-667.48876953125	1140.818481445312	422.9153747558594	-519.36767578125	929.2640380859375	515.2647094726562	-596.6995849609375	905.0587158203125	551.3368530273438	-642.9429931640625	1076.347778320312	541.7530517578125	-484.7261962890625	746.0785522460938	487.1465759277344	-486.3827819824219	839.0008544921875	525.0704345703125	-562.1614379882812	823.5286865234375	549.0264892578125	-599.5094604492188	1677.754638671875	296.6341552734375	-442.1197814941406	1726.264892578125	155.1876220703125	-431.4566040039062	1720.210327148438	284.5229187011719	-618.024169921875	1691.762817382812	160.4110260009766	-675.7556762695312	998.8533325195312	59.16374206542969	-593.56494140625	1011.913146972656	423.4720764160156	-516.1822509765625	1032.536254882812	361.1145935058594	-540.8320922851562	1027.164306640625	102.4358673095703	-608.086669921875	493.7274475097656	108.3020248413086	-623.16455078125	637.127197265625	75.3974609375	-736.6324462890625	39.84039688110352	129.4690704345703	-665.8408203125	267.7407531738281	111.1253051757812	-519.9224853515625	43.31761169433594	160.576904296875	-567.6233520507812	43.60364532470703	207.0324401855469	-625.6395874023438	30.23760032653809	90.90567779541016	-787.6367797851562	44.19597625732422	200.1450958251953	-395.6529846191406	550.2295532226562	407.8841552734375	-484.5273742675781	810.1422119140625	426.6607055664062	-611.6495971679688	99.95913696289062	416.8049621582031	-405.2378234863281	422.4255981445312	399.3499450683594	-391.4258422851562	68.93263244628906	416.0169677734375	-439.2561950683594	73.61271667480469	362.9655151367188	-507.4514465332031	72.18961334228516	465.834228515625	-652.0313110351562	109.090705871582	340.6549987792969	
385	3.84	-754.6775512695312	1066.722412109375	310.9963989257812	-764.3875122070312	1068.616943359375	188.6087036132812	-753.607666015625	1107.98974609375	250.3833312988281	-471.5105590820312	1289.1201171875	221.3621673583984	-766.4349365234375	1268.004760742188	239.4705505371094	-676.9042358398438	1529.377685546875	220.9759368896484	-489.1374206542969	1405.171142578125	212.6378631591797	-753.099853515625	1361.74365234375	334.2254638671875	-691.9920654296875	1505.38330078125	120.5016250610352	-621.6944580078125	1486.7099609375	37.7437858581543	-671.8363647460938	1360.13916015625	-34.17713165283203	-681.8265991210938	1144.790771484375	-58.67646408081055	-719.8831787109375	1129.047119140625	19.97529602050781	-575.16162109375	909.937255859375	-51.73983764648438	-661.9271850585938	891.3399658203125	-78.95184326171875	-674.6906127929688	1034.115478515625	-77.77113342285156	-558.2420043945312	725.5850830078125	-37.0576171875	-641.0077514648438	821.2084350585938	-80.34747314453125	-568.4414672851562	832.3721923828125	-75.78375244140625	-607.4907836914062	1501.565063476562	397.7241516113281	-629.9949951171875	1436.17626953125	466.6554870605469	-672.5686645507812	1150.616943359375	523.2997436523438	-674.1980590820312	1141.660888671875	423.6790466308594	-526.2276000976562	929.8804931640625	515.7098388671875	-603.5537719726562	905.8467407226562	551.9434814453125	-649.3868408203125	1077.241943359375	542.46435546875	-491.951171875	746.6294555664062	487.7053833007812	-493.3700561523438	839.5799560546875	525.5724487304688	-569.1697998046875	824.2486572265625	549.6350708007812	-607.0440673828125	1679.059326171875	296.2256774902344	-449.990478515625	1726.714111328125	154.0784912109375	-439.0096435546875	1721.519409179688	283.4176025390625	-625.867431640625	1692.194458007812	159.9587249755859	-683.1158447265625	999.3135986328125	59.76549911499023	-599.33056640625	1012.546020507812	423.6826171875	-522.1994018554688	1033.199340820312	360.9584045410156	-548.2201538085938	1027.750122070312	102.3933944702148	-612.50830078125	494.5963134765625	108.5577926635742	-628.788818359375	637.73974609375	75.64779663085938	-736.8429565429688	39.61592102050781	129.3481903076172	-668.0632934570312	268.120361328125	111.2233352661133	-520.2774658203125	43.59403991699219	160.3710021972656	-567.92236328125	43.77183151245117	206.825927734375	-625.744140625	30.26933479309082	90.87606811523438	-787.6861572265625	43.69872665405273	200.1745300292969	-404.8173522949219	548.7899780273438	408.1578674316406	-491.2554321289062	809.8506469726562	426.3047180175781	-636.808837890625	106.6007461547852	418.5494995117188	-418.41015625	421.3179321289062	399.6649780273438	-417.8625183105469	68.56081390380859	416.1882019042969	-465.9617309570312	74.57496643066406	363.358154296875	-533.1520385742188	75.50729370117188	466.7352905273438	-677.4668579101562	117.2740707397461	342.6340026855469	
386	3.85	-761.031982421875	1067.216064453125	311.9643249511719	-771.2296752929688	1068.982055664062	189.5614013671875	-760.1759033203125	1108.418701171875	251.3680419921875	-478.6246032714844	1289.84375	220.9767761230469	-773.3677978515625	1268.368530273438	240.6257171630859	-684.33056640625	1529.921508789062	221.62158203125	-496.4497680664062	1405.839111328125	212.3317565917969	-759.7136840820312	1362.153076171875	335.30517578125	-699.8690795898438	1505.817626953125	121.2357330322266	-630.03125	1487.130249023438	38.10500717163086	-680.4439697265625	1360.490844726562	-33.50099563598633	-690.6849975585938	1145.38720703125	-58.11452484130859	-728.3349609375	1129.718994140625	20.77718925476074	-587.48974609375	908.834716796875	-52.25120544433594	-674.592041015625	892.028076171875	-79.50438690185547	-684.9493408203125	1034.877563476562	-77.57785797119141	-574.4443359375	723.9566040039062	-38.16865539550781	-655.1046752929688	821.5220336914062	-81.23806762695312	-582.3024291992188	831.1280517578125	-76.52864837646484	-613.991455078125	1502.239501953125	398.013916015625	-636.1347045898438	1436.90869140625	467.1171569824219	-678.7537841796875	1151.456176757812	524.1970825195312	-680.772705078125	1142.38671875	424.6361083984375	-532.93701171875	930.3753051757812	516.2852172851562	-610.2069091796875	906.5687866210938	552.8121948242188	-655.5844116210938	1078.075439453125	543.3699951171875	-499.1639404296875	747.0394897460938	488.4242248535156	-500.2300720214844	840.018310546875	526.1843872070312	-576.0441284179688	824.8827514648438	550.493408203125	-614.5917358398438	1680.25830078125	295.8558349609375	-457.8558349609375	1727.106689453125	153.0510864257812	-446.5907592773438	1722.756713867188	282.3885803222656	-633.6954956054688	1692.528686523438	159.5364379882812	-690.2882080078125	999.7344360351562	60.39367294311523	-605.1519775390625	1013.025390625	424.01611328125	-528.2115478515625	1033.781005859375	360.9953002929688	-555.4067993164062	1028.275634765625	102.5191497802734	-616.8081665039062	495.4387817382812	108.8253173828125	-634.2424926757812	638.3344116210938	75.93548583984375	-737.072265625	39.36000061035156	129.2000885009766	-670.2301635742188	268.4983825683594	111.2827758789062	-520.6812133789062	43.95847320556641	160.1483917236328	-568.278564453125	43.96732330322266	206.6012420654297	-625.8592529296875	30.29302024841309	90.84224700927734	-787.8001708984375	43.24591445922852	200.1353759765625	-414.4543762207031	547.0240478515625	408.5280456542969	-498.1524047851562	809.260498046875	426.1686706542969	-661.732666015625	113.2765655517578	420.4585571289062	-431.9437255859375	420.0055541992188	400.0906372070312	-444.2734375	68.35371398925781	416.6183471679688	-492.5651550292969	75.72280883789062	363.9953918457031	-558.7434692382812	78.92609405517578	467.871337890625	-702.6029052734375	125.4621658325195	344.8467102050781	
387	3.86	-767.3380737304688	1067.604614257812	312.9326477050781	-777.9727783203125	1069.28564453125	190.5178375244141	-766.690185546875	1108.764770507812	252.3757934570312	-485.7113647460938	1290.503051757812	220.6647796630859	-780.2632446289062	1268.65576171875	241.8440093994141	-691.726806640625	1530.3935546875	222.3426971435547	-503.7425231933594	1406.436889648438	212.0764465332031	-766.2876586914062	1362.484497070312	336.4632263183594	-707.7405395507812	1506.167236328125	122.0505218505859	-638.3865966796875	1487.459350585938	38.53322219848633	-689.1141967773438	1360.739624023438	-32.73362731933594	-699.6580810546875	1145.9013671875	-57.44625854492188	-736.8373413085938	1130.278442382812	21.71279335021973	-599.7691650390625	907.7962646484375	-52.67820739746094	-687.1939697265625	892.697998046875	-79.91634368896484	-695.2630615234375	1035.562866210938	-77.27651214599609	-590.3787231445312	722.4929809570312	-39.30022048950195	-669.0588989257812	821.8716430664062	-82.04109191894531	-596.0518798828125	830.00830078125	-77.23468017578125	-620.4278564453125	1502.84521484375	398.3657836914062	-642.167236328125	1437.558227539062	467.6475219726562	-684.6852416992188	1152.230102539062	525.2576904296875	-687.1925048828125	1143.01318359375	425.7694702148438	-539.501220703125	930.753662109375	516.9818725585938	-616.661376953125	907.2374877929688	553.9251708984375	-661.53759765625	1078.862670898438	544.4511108398438	-506.3830261230469	747.3086547851562	489.3028869628906	-506.9785461425781	840.3174438476562	526.9012451171875	-582.7977294921875	825.4423828125	551.5908203125	-622.1427001953125	1681.364868164062	295.5242919921875	-465.7106628417969	1727.44921875	152.1026306152344	-454.1849670410156	1723.92578125	281.4326782226562	-641.5050659179688	1692.781372070312	159.1484375	-697.2701416015625	1000.135559082031	61.06089782714844	-611.0236206054688	1013.365112304688	424.4768676757812	-534.2251586914062	1034.293701171875	361.2215576171875	-562.3968505859375	1028.766235351562	102.8200073242188	-620.9714965820312	496.2585144042969	109.0985946655273	-639.5053100585938	638.9230346679688	76.24832153320312	-737.3145141601562	39.07643508911133	129.0284729003906	-672.338134765625	268.878662109375	111.2992935180664	-521.131103515625	44.44216156005859	159.9050445556641	-568.6881103515625	44.20917129516602	206.3552093505859	-625.9871215820312	30.30660057067871	90.80422210693359	-788.000244140625	42.85707092285156	200.0179138183594	-424.5908203125	544.955810546875	408.9983215332031	-505.2172546386719	808.3916625976562	426.25048828125	-686.3839721679688	119.9107894897461	422.53271484375	-445.8467712402344	418.5023498535156	400.6350708007812	-470.5900268554688	68.26878356933594	417.3038330078125	-518.9802856445312	77.01719665527344	364.8800048828125	-584.2062377929688	82.36798095703125	469.2283935546875	-727.388671875	133.5648803710938	347.254150390625	
